<svg width="72" height="57" viewBox="0 0 72 57" fill="none" xmlns="http://www.w3.org/2000/svg">
<path d="M2.00002 54.9669C10.1905 54.9669 21.4369 51.518 28.4199 48.5409C47.8965 40.2375 50.1081 23.8089 55.7734 8.42596" stroke="#FF5D8F" stroke-width="3" stroke-linecap="round"/>
<path d="M34 22.6754C39.7729 20.159 45.4185 17.1608 50.0393 12.8132C52.3492 10.6399 54.4133 8.15289 56.0549 5.4358C56.5723 4.57949 56.9015 3.97278 57.2307 3.06676C57.3083 2.85304 57.3691 2.63281 57.4167 2.41045C57.4446 2.27985 57.5067 1.93626 57.3956 2.01035C57.2256 2.12367 57.2264 2.38588 57.185 2.58594C57.0844 3.07218 57.0062 3.80087 56.9885 4.27059C56.8687 7.44331 57.4628 10.6801 58.4064 13.6976C59.337 16.6738 60.6979 19.5339 62.8356 21.8401C63.8719 22.958 64.6535 23.5755 65.9277 24.3741C67.2312 25.191 68.614 25.6658 70.0094 26.2763" stroke="#FF5D8F" stroke-width="3" stroke-linecap="round"/>
</svg>
